<?xml version="1.0" encoding="utf-8"?>
<!-- Generator: Adobe Illustrator 24.0.3, SVG Export Plug-In . SVG Version: 6.00 Build 0)  -->
<svg version="1.1" id="Layer_1" xmlns="http://www.w3.org/2000/svg" xmlns:xlink="http://www.w3.org/1999/xlink" x="0px" y="0px"
	 viewBox="0 0 250 100" style="enable-background:new 0 0 250 100;" xml:space="preserve">
<style type="text/css">
	.st0{fill:#FFF800;}
	.st1{fill:#FFF800;stroke:#000000;}
	.st2{fill:none;stroke:#000000;}
</style>
<rect x="0" y="0" class="st0" width="250" height="100"/>
<g>
	<g>
		<path d="M45.11,34.65c0.39,0.48,0.69,1.08,0.88,1.81c0.2,0.73,0.29,1.57,0.29,2.52c-0.11,0.5-0.34,0.92-0.69,1.24
			c-0.35,0.32-0.72,0.57-1.11,0.74l-0.8,0.21c-0.64,0-1.16-0.12-1.53-0.36s-0.62-0.62-0.74-1.16v-0.5c0-0.28-0.01-0.56-0.04-0.84
			c-0.03-0.28-0.09-0.57-0.19-0.88c-0.1-0.31-0.4-0.59-0.9-0.84c-0.59,0-1.08,0.21-1.49,0.63c-0.41,0.42-0.68,0.95-0.82,1.6
			l-0.38,1.76l-0.17,1.76c0,0.28,0,0.51,0,0.69c0,0.18,0.05,0.46,0.15,0.84c0.1,0.38,0.18,0.66,0.25,0.84
			c0.07,0.18,0.19,0.43,0.36,0.74c0.45,0.59,0.95,1.05,1.49,1.39s1.11,0.5,1.7,0.5c0.39,0,0.77-0.07,1.13-0.21
			c0.2-0.11,0.56-0.49,1.09-1.13c0.42-0.64,0.85-0.97,1.3-0.97c0.28,0,0.53,0.06,0.76,0.17c0.67,1.34,1.21,2.85,1.62,4.51
			c0.41,1.67,0.61,3.34,0.61,5.02c0,1.88-0.26,3.66-0.78,5.35c-0.52,1.69-1.2,3.03-2.04,4.01s-1.54,1.6-2.1,1.85
			c-0.56,0.25-1.11,0.45-1.64,0.59s-1.12,0.21-1.76,0.21h-0.71h-0.38c-1.65,0-3.12-0.5-4.41-1.49c-1.29-1-2.38-2.66-3.28-4.98
			s-1.34-5.14-1.34-8.45c0-3.05,0.41-5.95,1.24-8.68c0.83-2.73,2.04-5.19,3.63-7.38c0.7-0.87,1.62-1.57,2.75-2.1s2.27-0.8,3.42-0.8
			C42.33,32.84,43.87,33.44,45.11,34.65z"/>
		<path d="M64.34,34.14c1.6,1.79,2.82,4.12,3.67,6.97c0.85,2.86,1.28,7.24,1.28,13.15v4.07c-0.25,1.93-0.81,3.65-1.66,5.17
			c-0.85,1.51-2.05,2.65-3.59,3.4c-0.67,0.28-1.37,0.49-2.08,0.63c-0.71,0.14-1.51,0.21-2.37,0.21c-1.06,0-2.02-0.11-2.88-0.34
			c-0.85-0.22-1.86-0.86-3-1.91c-1.15-1.05-2.09-2.74-2.83-5.07c-0.74-2.33-1.11-4.85-1.11-7.57l0.13-3.49
			c0-0.67,0.08-1.53,0.25-2.57s0.31-1.93,0.42-2.69c1.15-3.87,2.15-6.64,3-8.33c0.85-1.68,1.97-2.65,3.34-2.9l2.52-0.38h1.01
			c0.78,0,1.48,0.11,2.1,0.34C63.15,33.06,63.75,33.5,64.34,34.14z M59.51,37.33c-0.5,0-0.91,0.23-1.22,0.69
			c-0.31,0.46-0.52,0.92-0.63,1.37l-0.21,1.47v1.22v1.89c0,0.45,0.2,0.78,0.61,1.01c0.41,0.22,0.88,0.34,1.43,0.34
			c0.57,0,1.04-0.12,1.42-0.36c0.38-0.24,0.57-0.57,0.57-0.99v-1.72v-0.63c0-0.14,0-0.29,0-0.46c0-0.2,0-0.34,0-0.42
			c0-0.39-0.1-0.87-0.29-1.43c-0.17-0.64-0.36-1.13-0.59-1.47C60.38,37.5,60.02,37.33,59.51,37.33z"/>
		<path d="M83.58,35.23L84,36.24l0.67,1.39c0.5-1.2,1.27-2.26,2.31-3.17c1.04-0.91,2.24-1.57,3.61-1.99l1.09-0.17l1.22-0.04
			c0.98,0,1.88,0.17,2.69,0.5c0.81,0.34,1.44,0.91,1.89,1.72c0,1.15-0.51,2.88-1.53,5.21s-1.53,3.99-1.53,5
			c0,0.48,0.39,2.03,1.18,4.66l3.49,11.42c0,1.29-0.27,2.43-0.8,3.42c-0.53,0.99-1.5,1.95-2.9,2.88l-1.51,0.29l-1.76,0.13
			c-1.23,0-2.35-0.22-3.34-0.65c-0.99-0.43-1.77-1.16-2.33-2.16c-0.42-1.09-0.63-2.27-0.63-3.53c0-1.23,0.59-3.49,1.79-6.76
			c1.19-3.28,1.79-5.63,1.79-7.06c0-1.12-0.18-2.21-0.55-3.28c-0.2-0.36-0.46-0.55-0.8-0.55c-0.17,0-0.36,0.07-0.59,0.21
			c-0.17,0.31-0.29,0.71-0.38,1.22l-0.13,1.43l0.13,2.1l0.13,2.1c0,1.12-0.28,2-0.84,2.65c-0.5,0.67-1.13,1.01-1.89,1.01
			c-0.62,0-1.17-0.32-1.66-0.95c-0.49-0.63-0.74-1.53-0.74-2.71l0.13-1.85l0.17-2.02c0-0.5-0.02-0.85-0.06-1.05
			c-0.04-0.2-0.13-0.5-0.27-0.92c-0.17-0.7-0.48-1.05-0.92-1.05c-0.22,0-0.45,0.16-0.67,0.48c-0.22,0.32-0.38,0.65-0.46,0.99
			l-0.08,0.92l0.13,1.6l0.13,1.47L84,61.53c0,1.04-0.22,2-0.65,2.88c-0.43,0.88-1.2,1.73-2.29,2.54l-1.68,0.21l-1.72,0.08
			l-1.93-0.13c-0.59-0.08-1.24-0.29-1.95-0.63s-1.25-0.96-1.62-1.87c-0.36-0.91-0.55-1.88-0.55-2.92c0-0.39,0.01-0.8,0.04-1.24
			c0.03-0.43,0.08-0.87,0.17-1.32l1.01-4.62l2.18-9.07v-0.55c0-0.2-0.02-0.47-0.06-0.82c-0.04-0.35-0.08-0.61-0.13-0.78
			s-0.12-0.41-0.23-0.71c-0.11-0.48-0.32-1.03-0.61-1.66s-0.67-1.45-1.13-2.46c-0.46-1.01-0.69-1.93-0.69-2.77
			c0-0.53,0.06-0.95,0.17-1.26c0.08-0.39,0.32-0.81,0.71-1.26c1.03-0.87,2.39-1.3,4.06-1.3c1.34,0,2.59,0.28,3.75,0.84
			C82,33.27,82.91,34.12,83.58,35.23z"/>
		<path d="M113.9,33.68l0.46,1.22l0.17,1.18c0,0.5-0.11,1.09-0.34,1.76c-0.22,0.67-0.71,1.78-1.45,3.34
			c-0.74,1.55-1.11,2.71-1.11,3.46c0,0.22,0,0.4,0,0.52s0.06,0.42,0.17,0.88c0.11,0.46,0.74,2.32,1.87,5.59s1.7,5.89,1.7,7.88
			c0,1.48-0.27,2.97-0.8,4.45c-0.48,0.9-1.19,1.56-2.14,1.99c-0.95,0.43-2.06,0.65-3.32,0.65c-0.84,0-1.66-0.08-2.46-0.25
			s-1.76-0.54-2.88-1.11c-1.12-0.57-1.89-1.43-2.31-2.58c-0.08-0.42-0.15-0.85-0.21-1.3c-0.06-0.45-0.08-0.92-0.08-1.43
			c0-0.95,0.15-2.06,0.46-3.32c0.31-1.26,0.97-3.18,1.97-5.77c1.01-2.59,1.51-4.75,1.51-6.49c0-0.36,0-0.73,0-1.09
			c-0.08-0.36-0.15-0.76-0.21-1.18c-0.06-0.42-0.2-0.87-0.42-1.34c-0.17-0.53-0.51-1.3-1.03-2.31c-0.52-1.01-0.78-1.85-0.78-2.52
			c0-0.53,0.15-1.08,0.44-1.66c0.29-0.57,0.94-1.03,1.93-1.36s2.16-0.5,3.51-0.5c1.23,0,2.37,0.13,3.4,0.38
			S113.65,33.32,113.9,33.68z"/>
		<path d="M132.59,34.65c0.39,0.48,0.69,1.08,0.88,1.81c0.2,0.73,0.29,1.57,0.29,2.52c-0.11,0.5-0.34,0.92-0.69,1.24
			c-0.35,0.32-0.72,0.57-1.11,0.74l-0.8,0.21c-0.64,0-1.16-0.12-1.53-0.36s-0.62-0.62-0.74-1.16v-0.5c0-0.28-0.01-0.56-0.04-0.84
			c-0.03-0.28-0.09-0.57-0.19-0.88c-0.1-0.31-0.4-0.59-0.9-0.84c-0.59,0-1.08,0.21-1.49,0.63c-0.41,0.42-0.68,0.95-0.82,1.6
			l-0.38,1.76l-0.17,1.76c0,0.28,0,0.51,0,0.69c0,0.18,0.05,0.46,0.15,0.84c0.1,0.38,0.18,0.66,0.25,0.84
			c0.07,0.18,0.19,0.43,0.36,0.74c0.45,0.59,0.95,1.05,1.49,1.39s1.11,0.5,1.7,0.5c0.39,0,0.77-0.07,1.13-0.21
			c0.2-0.11,0.56-0.49,1.09-1.13c0.42-0.64,0.85-0.97,1.3-0.97c0.28,0,0.53,0.06,0.76,0.17c0.67,1.34,1.21,2.85,1.62,4.51
			c0.41,1.67,0.61,3.34,0.61,5.02c0,1.88-0.26,3.66-0.78,5.35c-0.52,1.69-1.2,3.03-2.04,4.01s-1.54,1.6-2.1,1.85
			c-0.56,0.25-1.11,0.45-1.64,0.59s-1.12,0.21-1.76,0.21h-0.71h-0.38c-1.65,0-3.12-0.5-4.41-1.49c-1.29-1-2.38-2.66-3.28-4.98
			s-1.34-5.14-1.34-8.45c0-3.05,0.41-5.95,1.24-8.68c0.83-2.73,2.04-5.19,3.63-7.38c0.7-0.87,1.62-1.57,2.75-2.1s2.27-0.8,3.42-0.8
			C129.82,32.84,131.36,33.44,132.59,34.65z"/>
		<path d="M147.38,33.47c0.61,0.62,0.92,1.32,0.92,2.1c0,0.5-0.2,1.3-0.61,2.37c-0.41,1.08-0.61,1.88-0.61,2.42l0.04,0.67l0.25,0.59
			c0.11,0.2,0.35,0.31,0.71,0.34h0.29l0.5-0.17c0.42-0.34,0.71-0.77,0.88-1.29s0.25-1.11,0.25-1.76l-0.04-1.36v-0.51
			c0-0.2-0.04-0.49-0.13-0.89c0-0.79,0.15-1.45,0.44-1.97c0.3-0.52,0.89-0.91,1.79-1.17l1.18-0.42l1.52-0.17
			c1.35,0,2.49,0.34,3.42,1.02c0.56,0.48,0.84,1.19,0.84,2.12c0,0.31-0.04,0.62-0.13,0.93c-0.08,0.31-0.28,0.72-0.59,1.23
			c-0.31,0.51-1.39,1.4-3.25,2.69s-3.03,2.41-3.51,3.36c0.25,0.9,1.2,2.29,2.83,4.17c1.64,1.88,2.72,3.23,3.23,4.04
			c0.52,0.81,1.07,2.05,1.66,3.72c0.59,1.67,0.88,3.33,0.88,4.99c0,1.71-0.22,3.04-0.67,3.98c-0.45,0.94-1.05,1.59-1.81,1.94
			c-0.76,0.35-1.6,0.53-2.52,0.53c-1.01,0-1.91-0.19-2.69-0.57c-0.78-0.38-1.43-1.03-1.93-1.96c-0.22-0.53-0.41-1.21-0.55-2.02
			l-0.17-2.15c0-0.31,0.01-0.75,0.04-1.33c0.03-0.58,0.08-1.27,0.17-2.08l0.25-3.28c0-0.42-0.01-0.77-0.04-1.05
			c-0.03-0.28-0.1-0.85-0.21-1.7c-0.11-0.86-0.21-1.5-0.29-1.94c-0.08-0.43-0.2-0.78-0.34-1.03c-0.17-0.45-0.53-0.72-1.09-0.8
			c-0.64,0.25-1.13,0.7-1.47,1.34c-0.28,0.64-0.42,1.34-0.42,2.1c0,0.73,0.02,1.26,0.06,1.6s0.08,0.58,0.11,0.74
			c0.03,0.15,0.11,0.46,0.25,0.9l0.97,3.53c0.45,1.71,0.67,3.08,0.67,4.12c0,1.32-0.34,2.56-1.01,3.74
			c-0.62,0.62-1.32,1.08-2.1,1.39c-0.78,0.31-1.6,0.46-2.44,0.46c-0.98,0-2.02-0.18-3.11-0.55c-0.76-0.34-1.27-0.81-1.55-1.43
			l-0.92-2.69c0-1.93,0.7-4.77,2.1-8.5c1.4-3.74,2.1-6.39,2.1-7.96l0.04-0.76c0-1.12-0.43-2.86-1.28-5.21
			c-0.85-2.35-1.28-4-1.28-4.96l0.04-0.88c1-1.18,2.45-1.76,4.35-1.76C145.01,32.25,146.32,32.66,147.38,33.47z"/>
		<path d="M184.84,33.85c0.59,0.56,0.88,1.19,0.88,1.89c0,0.48-0.24,1.23-0.71,2.25c-0.48,1.02-0.76,1.79-0.84,2.29
			c-0.25,1.06-0.38,2.04-0.38,2.94c0,1.76,0.43,3.65,1.3,5.67l2.56,5.84c0.45,1.15,0.78,2.25,1.01,3.32
			c0.22,1.06,0.34,2.13,0.34,3.19c0,1.12-0.17,2.03-0.5,2.73s-0.9,1.23-1.68,1.6c-0.78,0.31-1.52,0.53-2.21,0.67
			c-0.69,0.14-1.24,0.24-1.66,0.29s-0.84,0.08-1.26,0.08c-0.84,0-1.57-0.08-2.18-0.25s-1.18-0.54-1.7-1.11
			c-0.52-0.57-0.91-1.31-1.18-2.21c-0.27-0.9-0.4-1.85-0.4-2.86c0-1.34,0.21-3.11,0.63-5.29c0.42-2.18,0.7-3.73,0.84-4.64
			c0.14-0.91,0.21-1.64,0.21-2.21c0-0.78-0.15-1.48-0.46-2.08c-0.31-0.6-0.8-0.95-1.47-1.03c-0.64,0-1.18,0.13-1.62,0.4
			c-0.43,0.27-0.69,0.64-0.78,1.11l-0.13,1.09v0.63c0,1.43,0.29,3.39,0.86,5.9c0.57,2.51,0.86,4.36,0.86,5.57
			c0,1.01-0.09,1.89-0.27,2.65c-0.18,0.76-0.47,1.53-0.86,2.33c-0.39,0.8-1.08,1.36-2.06,1.68c-0.98,0.32-2.03,0.48-3.15,0.48
			c-0.22,0-0.48-0.01-0.76-0.02c-0.28-0.01-0.68-0.06-1.2-0.15c-0.52-0.08-1.01-0.25-1.47-0.48c-0.46-0.24-0.93-0.59-1.41-1.07
			c-0.34-0.42-0.69-1.01-1.05-1.76c-0.08-0.48-0.15-0.92-0.21-1.34c-0.06-0.42-0.08-0.88-0.08-1.39c0-1.79,0.45-3.67,1.34-5.63
			l2.77-6.01c0.95-2.07,1.43-3.95,1.43-5.63c0-1.01-0.07-1.76-0.21-2.27c-0.11-0.59-0.44-1.48-0.99-2.69
			c-0.55-1.2-0.82-2.03-0.82-2.48c0-0.31,0.08-0.7,0.25-1.18c0.59-0.67,1.37-1.13,2.33-1.39s2.09-0.38,3.38-0.38h1.6h2.48h0.92
			c0.25,0,0.5,0,0.76,0c0.34-0.08,0.59-0.13,0.76-0.13c0.64,0,1.24,0.01,1.79,0.04c0.55,0.03,1.06,0.08,1.53,0.15
			c0.48,0.07,0.94,0.17,1.39,0.29S184.31,33.6,184.84,33.85z M175.77,36.96c-0.56,0.17-0.96,0.5-1.2,1.01
			c-0.24,0.5-0.36,1.09-0.36,1.76l0.61,0.17l0.77-0.08l0.65-0.13c0.33,0,0.63,0.08,0.9,0.25c0.27-0.08,0.4-0.32,0.4-0.71v-1.05
			C177.25,37.36,176.66,36.96,175.77,36.96z"/>
		<path d="M207.01,34.56c0.17,0.39,0.25,0.76,0.25,1.09c0,0.64-0.34,1.34-1.01,2.1l-1.85,1.97c-0.28,0.42-1.01,1.15-2.18,2.18
			l-2.1,2.06l-0.63,1.05c-0.08,0.22-0.15,0.57-0.21,1.05c0,0.81,0.38,1.22,1.13,1.22c0.2,0,0.42-0.08,0.67-0.25s0.55-0.61,0.9-1.32
			c0.35-0.71,0.65-1.23,0.9-1.55c0.25-0.32,0.56-0.48,0.92-0.48c0.25,0,0.62,0.13,1.09,0.38l0.71,0.92c0,1.57,0.36,4.3,1.07,8.21
			c0.71,3.91,1.07,6.64,1.07,8.21c0,1.2-0.1,2.31-0.29,3.32c-0.5,0.95-1.25,1.69-2.23,2.23c-0.42,0-0.71-0.03-0.88-0.08h-0.59
			l-2.73,0.13l-3.11,0.17c-1.54,0-2.83-0.2-3.86-0.59c-1.04-0.39-1.89-1.19-2.56-2.39l-0.25-1.97l-0.08-2.27
			c0-1.04,0.06-2.21,0.17-3.53c0.11-1.32,0.29-2.74,0.55-4.28l0.84-6.13c0.56-0.98,1.9-2.59,4.03-4.83l3.32-3.49
			c0-0.28-0.1-0.54-0.29-0.78c-0.2-0.24-0.46-0.4-0.8-0.48c-0.95,0-1.9,0.69-2.86,2.06s-1.79,2.06-2.52,2.06
			c-0.34,0-0.8-0.13-1.39-0.38l-0.71-2.69l-0.17-1.97c0-0.78,0.11-1.44,0.34-1.97c0.98-0.31,1.95-0.54,2.9-0.69
			c0.95-0.15,1.74-0.26,2.35-0.31c0.62-0.06,1.27-0.08,1.97-0.08c2.6,0,5,0.36,7.18,1.09L207.01,34.56z"/>
		<path d="M224.36,33.89c0.48,0.5,0.86,1.09,1.16,1.76s0.44,1.29,0.44,1.85c0,0.59-0.14,1.12-0.42,1.6
			c-0.28,0.28-0.64,0.42-1.09,0.42c-0.39,0-0.83-0.17-1.3-0.5l-1.22-1.3c-0.62-0.53-1.15-0.8-1.6-0.8c-0.2,0-0.45,0.07-0.76,0.21
			c-0.31,0.14-0.48,0.43-0.5,0.88c0,0.34,0.08,0.59,0.23,0.78c0.15,0.18,0.79,0.39,1.91,0.61c1.06,0.17,1.6,0.59,1.6,1.26l0.04,0.97
			c0,0.42-0.03,0.74-0.08,0.97c-0.06,0.22-0.29,0.38-0.71,0.46h-0.63c-0.42,0-0.81,0.08-1.18,0.23s-0.63,0.37-0.8,0.64
			s-0.25,0.57-0.25,0.87c0,0.91,0.24,1.41,0.71,1.49l1.09,0.12c0.59,0,1.29-0.49,2.1-1.47c0.81-0.98,1.37-1.47,1.68-1.47
			c0.28,0,0.68,0.14,1.2,0.42c0.52,0.28,0.92,0.99,1.2,2.14l0.8,5.33v1.97l0.04,2.02c0,3.22-0.15,5.45-0.44,6.68
			c-0.29,1.23-0.76,2.16-1.39,2.79s-1.55,1.11-2.75,1.45c-1.32,0.28-2.65,0.42-3.99,0.42c-1.43,0-2.85-0.13-4.26-0.38
			c-1.41-0.25-2.49-0.62-3.21-1.09c-0.76-0.42-1.35-0.93-1.79-1.53c-0.43-0.6-0.65-1.34-0.65-2.21c0-1.65,0.34-3.47,1.01-5.46
			l2.1-5.92c0.7-2.04,1.05-3.82,1.05-5.33c0-0.42,0-0.85,0-1.3c-0.08-0.36-0.15-0.75-0.21-1.16c-0.06-0.41-0.27-1.03-0.63-1.87
			l-1.22-2.35c-0.39-0.87-0.59-1.65-0.59-2.35l0.13-1.01c0.64-0.73,1.47-1.26,2.48-1.6c1.12-0.28,2.3-0.42,3.53-0.42
			c0.45,0,0.87,0,1.28,0s0.86,0,1.37,0l2.98,0.25c0.34,0,0.62,0.08,0.84,0.25C223.79,33.27,224.02,33.5,224.36,33.89z"/>
	</g>
	<g>
		<path class="st1" d="M39.11,30.65c0.39,0.48,0.69,1.08,0.88,1.81c0.2,0.73,0.29,1.57,0.29,2.52c-0.11,0.5-0.34,0.92-0.69,1.24
			c-0.35,0.32-0.72,0.57-1.11,0.74l-0.8,0.21c-0.64,0-1.16-0.12-1.53-0.36s-0.62-0.62-0.74-1.16v-0.5c0-0.28-0.01-0.56-0.04-0.84
			c-0.03-0.28-0.09-0.57-0.19-0.88c-0.1-0.31-0.4-0.59-0.9-0.84c-0.59,0-1.08,0.21-1.49,0.63c-0.41,0.42-0.68,0.95-0.82,1.6
			l-0.38,1.76l-0.17,1.76c0,0.28,0,0.51,0,0.69c0,0.18,0.05,0.46,0.15,0.84c0.1,0.38,0.18,0.66,0.25,0.84
			c0.07,0.18,0.19,0.43,0.36,0.74c0.45,0.59,0.95,1.05,1.49,1.39s1.11,0.5,1.7,0.5c0.39,0,0.77-0.07,1.13-0.21
			c0.2-0.11,0.56-0.49,1.09-1.13c0.42-0.64,0.85-0.97,1.3-0.97c0.28,0,0.53,0.06,0.76,0.17c0.67,1.34,1.21,2.85,1.62,4.51
			c0.41,1.67,0.61,3.34,0.61,5.02c0,1.88-0.26,3.66-0.78,5.35c-0.52,1.69-1.2,3.03-2.04,4.01s-1.54,1.6-2.1,1.85
			c-0.56,0.25-1.11,0.45-1.64,0.59s-1.12,0.21-1.76,0.21h-0.71h-0.38c-1.65,0-3.12-0.5-4.41-1.49c-1.29-1-2.38-2.66-3.28-4.98
			s-1.34-5.14-1.34-8.45c0-3.05,0.41-5.95,1.24-8.68c0.83-2.73,2.04-5.19,3.63-7.38c0.7-0.87,1.62-1.57,2.75-2.1s2.27-0.8,3.42-0.8
			C36.33,28.84,37.87,29.44,39.11,30.65z"/>
		<path class="st1" d="M58.34,30.14c1.6,1.79,2.82,4.12,3.67,6.97c0.85,2.86,1.28,7.24,1.28,13.15v4.07
			c-0.25,1.93-0.81,3.65-1.66,5.17c-0.85,1.51-2.05,2.65-3.59,3.4c-0.67,0.28-1.37,0.49-2.08,0.63c-0.71,0.14-1.51,0.21-2.37,0.21
			c-1.06,0-2.02-0.11-2.88-0.34c-0.85-0.22-1.86-0.86-3-1.91c-1.15-1.05-2.09-2.74-2.83-5.07c-0.74-2.33-1.11-4.85-1.11-7.57
			l0.13-3.49c0-0.67,0.08-1.53,0.25-2.57s0.31-1.93,0.42-2.69c1.15-3.87,2.15-6.64,3-8.33c0.85-1.68,1.97-2.65,3.34-2.9l2.52-0.38
			h1.01c0.78,0,1.48,0.11,2.1,0.34C57.15,29.06,57.75,29.5,58.34,30.14z M53.51,33.33c-0.5,0-0.91,0.23-1.22,0.69
			c-0.31,0.46-0.52,0.92-0.63,1.37l-0.21,1.47v1.22v1.89c0,0.45,0.2,0.78,0.61,1.01c0.41,0.22,0.88,0.34,1.43,0.34
			c0.57,0,1.04-0.12,1.42-0.36c0.38-0.24,0.57-0.57,0.57-0.99v-1.72v-0.63c0-0.14,0-0.29,0-0.46c0-0.2,0-0.34,0-0.42
			c0-0.39-0.1-0.87-0.29-1.43c-0.17-0.64-0.36-1.13-0.59-1.47C54.38,33.5,54.02,33.33,53.51,33.33z"/>
		<path class="st1" d="M77.58,31.23L78,32.24l0.67,1.39c0.5-1.2,1.27-2.26,2.31-3.17c1.04-0.91,2.24-1.57,3.61-1.99l1.09-0.17
			l1.22-0.04c0.98,0,1.88,0.17,2.69,0.5c0.81,0.34,1.44,0.91,1.89,1.72c0,1.15-0.51,2.88-1.53,5.21s-1.53,3.99-1.53,5
			c0,0.48,0.39,2.03,1.18,4.66l3.49,11.42c0,1.29-0.27,2.43-0.8,3.42c-0.53,0.99-1.5,1.95-2.9,2.88l-1.51,0.29l-1.76,0.13
			c-1.23,0-2.35-0.22-3.34-0.65c-0.99-0.43-1.77-1.16-2.33-2.16c-0.42-1.09-0.63-2.27-0.63-3.53c0-1.23,0.59-3.49,1.79-6.76
			c1.19-3.28,1.79-5.63,1.79-7.06c0-1.12-0.18-2.21-0.55-3.28c-0.2-0.36-0.46-0.55-0.8-0.55c-0.17,0-0.36,0.07-0.59,0.21
			c-0.17,0.31-0.29,0.71-0.38,1.22l-0.13,1.43l0.13,2.1l0.13,2.1c0,1.12-0.28,2-0.84,2.65c-0.5,0.67-1.13,1.01-1.89,1.01
			c-0.62,0-1.17-0.32-1.66-0.95c-0.49-0.63-0.74-1.53-0.74-2.71l0.13-1.85l0.17-2.02c0-0.5-0.02-0.85-0.06-1.05
			c-0.04-0.2-0.13-0.5-0.27-0.92c-0.17-0.7-0.48-1.05-0.92-1.05c-0.22,0-0.45,0.16-0.67,0.48c-0.22,0.32-0.38,0.65-0.46,0.99
			l-0.08,0.92l0.13,1.6l0.13,1.47L78,57.53c0,1.04-0.22,2-0.65,2.88c-0.43,0.88-1.2,1.73-2.29,2.54l-1.68,0.21l-1.72,0.08
			l-1.93-0.13c-0.59-0.08-1.24-0.29-1.95-0.63s-1.25-0.96-1.62-1.87c-0.36-0.91-0.55-1.88-0.55-2.92c0-0.39,0.01-0.8,0.04-1.24
			c0.03-0.43,0.08-0.87,0.17-1.32l1.01-4.62l2.18-9.07v-0.55c0-0.2-0.02-0.47-0.06-0.82c-0.04-0.35-0.08-0.61-0.13-0.78
			s-0.12-0.41-0.23-0.71c-0.11-0.48-0.32-1.03-0.61-1.66s-0.67-1.45-1.13-2.46c-0.46-1.01-0.69-1.93-0.69-2.77
			c0-0.53,0.06-0.95,0.17-1.26c0.08-0.39,0.32-0.81,0.71-1.26c1.03-0.87,2.39-1.3,4.06-1.3c1.34,0,2.59,0.28,3.75,0.84
			C76,29.27,76.91,30.12,77.58,31.23z"/>
		<path class="st1" d="M107.9,29.68l0.46,1.22l0.17,1.18c0,0.5-0.11,1.09-0.34,1.76c-0.22,0.67-0.71,1.78-1.45,3.34
			c-0.74,1.55-1.11,2.71-1.11,3.46c0,0.22,0,0.4,0,0.52s0.06,0.42,0.17,0.88c0.11,0.46,0.74,2.32,1.87,5.59s1.7,5.89,1.7,7.88
			c0,1.48-0.27,2.97-0.8,4.45c-0.48,0.9-1.19,1.56-2.14,1.99c-0.95,0.43-2.06,0.65-3.32,0.65c-0.84,0-1.66-0.08-2.46-0.25
			s-1.76-0.54-2.88-1.11c-1.12-0.57-1.89-1.43-2.31-2.58c-0.08-0.42-0.15-0.85-0.21-1.3c-0.06-0.45-0.08-0.92-0.08-1.43
			c0-0.95,0.15-2.06,0.46-3.32c0.31-1.26,0.97-3.18,1.97-5.77c1.01-2.59,1.51-4.75,1.51-6.49c0-0.36,0-0.73,0-1.09
			c-0.08-0.36-0.15-0.76-0.21-1.18c-0.06-0.42-0.2-0.87-0.42-1.34c-0.17-0.53-0.51-1.3-1.03-2.31c-0.52-1.01-0.78-1.85-0.78-2.52
			c0-0.53,0.15-1.08,0.44-1.66c0.29-0.57,0.94-1.03,1.93-1.36s2.16-0.5,3.51-0.5c1.23,0,2.37,0.13,3.4,0.38
			S107.65,29.32,107.9,29.68z"/>
		<path class="st1" d="M126.59,30.65c0.39,0.48,0.69,1.08,0.88,1.81c0.2,0.73,0.29,1.57,0.29,2.52c-0.11,0.5-0.34,0.92-0.69,1.24
			c-0.35,0.32-0.72,0.57-1.11,0.74l-0.8,0.21c-0.64,0-1.16-0.12-1.53-0.36s-0.62-0.62-0.74-1.16v-0.5c0-0.28-0.01-0.56-0.04-0.84
			c-0.03-0.28-0.09-0.57-0.19-0.88c-0.1-0.31-0.4-0.59-0.9-0.84c-0.59,0-1.08,0.21-1.49,0.63c-0.41,0.42-0.68,0.95-0.82,1.6
			l-0.38,1.76l-0.17,1.76c0,0.28,0,0.51,0,0.69c0,0.18,0.05,0.46,0.15,0.84c0.1,0.38,0.18,0.66,0.25,0.84
			c0.07,0.18,0.19,0.43,0.36,0.74c0.45,0.59,0.95,1.05,1.49,1.39s1.11,0.5,1.7,0.5c0.39,0,0.77-0.07,1.13-0.21
			c0.2-0.11,0.56-0.49,1.09-1.13c0.42-0.64,0.85-0.97,1.3-0.97c0.28,0,0.53,0.06,0.76,0.17c0.67,1.34,1.21,2.85,1.62,4.51
			c0.41,1.67,0.61,3.34,0.61,5.02c0,1.88-0.26,3.66-0.78,5.35c-0.52,1.69-1.2,3.03-2.04,4.01s-1.54,1.6-2.1,1.85
			c-0.56,0.25-1.11,0.45-1.64,0.59s-1.12,0.21-1.76,0.21h-0.71h-0.38c-1.65,0-3.12-0.5-4.41-1.49c-1.29-1-2.38-2.66-3.28-4.98
			s-1.34-5.14-1.34-8.45c0-3.05,0.41-5.95,1.24-8.68c0.83-2.73,2.04-5.19,3.63-7.38c0.7-0.87,1.62-1.57,2.75-2.1s2.27-0.8,3.42-0.8
			C123.82,28.84,125.36,29.44,126.59,30.65z"/>
		<path class="st1" d="M141.38,29.47c0.61,0.62,0.92,1.32,0.92,2.1c0,0.5-0.2,1.3-0.61,2.37c-0.41,1.08-0.61,1.88-0.61,2.42
			l0.04,0.67l0.25,0.59c0.11,0.2,0.35,0.31,0.71,0.34h0.29l0.5-0.17c0.42-0.34,0.71-0.77,0.88-1.29s0.25-1.11,0.25-1.76l-0.04-1.36
			v-0.51c0-0.2-0.04-0.49-0.13-0.89c0-0.79,0.15-1.45,0.44-1.97c0.3-0.52,0.89-0.91,1.79-1.17l1.18-0.42l1.52-0.17
			c1.35,0,2.49,0.34,3.42,1.02c0.56,0.48,0.84,1.19,0.84,2.12c0,0.31-0.04,0.62-0.13,0.93c-0.08,0.31-0.28,0.72-0.59,1.23
			c-0.31,0.51-1.39,1.4-3.25,2.69s-3.03,2.41-3.51,3.36c0.25,0.9,1.2,2.29,2.83,4.17c1.64,1.88,2.72,3.23,3.23,4.04
			c0.52,0.81,1.07,2.05,1.66,3.72c0.59,1.67,0.88,3.33,0.88,4.99c0,1.71-0.22,3.04-0.67,3.98c-0.45,0.94-1.05,1.59-1.81,1.94
			c-0.76,0.35-1.6,0.53-2.52,0.53c-1.01,0-1.91-0.19-2.69-0.57c-0.78-0.38-1.43-1.03-1.93-1.96c-0.22-0.53-0.41-1.21-0.55-2.02
			l-0.17-2.15c0-0.31,0.01-0.75,0.04-1.33c0.03-0.58,0.08-1.27,0.17-2.08l0.25-3.28c0-0.42-0.01-0.77-0.04-1.05
			c-0.03-0.28-0.1-0.85-0.21-1.7c-0.11-0.86-0.21-1.5-0.29-1.94c-0.08-0.43-0.2-0.78-0.34-1.03c-0.17-0.45-0.53-0.72-1.09-0.8
			c-0.64,0.25-1.13,0.7-1.47,1.34c-0.28,0.64-0.42,1.34-0.42,2.1c0,0.73,0.02,1.26,0.06,1.6s0.08,0.58,0.11,0.74
			c0.03,0.15,0.11,0.46,0.25,0.9l0.97,3.53c0.45,1.71,0.67,3.08,0.67,4.12c0,1.32-0.34,2.56-1.01,3.74
			c-0.62,0.62-1.32,1.08-2.1,1.39c-0.78,0.31-1.6,0.46-2.44,0.46c-0.98,0-2.02-0.18-3.11-0.55c-0.76-0.34-1.27-0.81-1.55-1.43
			l-0.92-2.69c0-1.93,0.7-4.77,2.1-8.5c1.4-3.74,2.1-6.39,2.1-7.96l0.04-0.76c0-1.12-0.43-2.86-1.28-5.21
			c-0.85-2.35-1.28-4-1.28-4.96l0.04-0.88c1-1.18,2.45-1.76,4.35-1.76C139.01,28.25,140.32,28.66,141.38,29.47z"/>
		<path class="st1" d="M178.84,29.85c0.59,0.56,0.88,1.19,0.88,1.89c0,0.48-0.24,1.23-0.71,2.25c-0.48,1.02-0.76,1.79-0.84,2.29
			c-0.25,1.06-0.38,2.04-0.38,2.94c0,1.76,0.43,3.65,1.3,5.67l2.56,5.84c0.45,1.15,0.78,2.25,1.01,3.32
			c0.22,1.06,0.34,2.13,0.34,3.19c0,1.12-0.17,2.03-0.5,2.73s-0.9,1.23-1.68,1.6c-0.78,0.31-1.52,0.53-2.21,0.67
			c-0.69,0.14-1.24,0.24-1.66,0.29s-0.84,0.08-1.26,0.08c-0.84,0-1.57-0.08-2.18-0.25s-1.18-0.54-1.7-1.11
			c-0.52-0.57-0.91-1.31-1.18-2.21c-0.27-0.9-0.4-1.85-0.4-2.86c0-1.34,0.21-3.11,0.63-5.29c0.42-2.18,0.7-3.73,0.84-4.64
			c0.14-0.91,0.21-1.64,0.21-2.21c0-0.78-0.15-1.48-0.46-2.08c-0.31-0.6-0.8-0.95-1.47-1.03c-0.64,0-1.18,0.13-1.62,0.4
			c-0.43,0.27-0.69,0.64-0.78,1.11l-0.13,1.09v0.63c0,1.43,0.29,3.39,0.86,5.9c0.57,2.51,0.86,4.36,0.86,5.57
			c0,1.01-0.09,1.89-0.27,2.65c-0.18,0.76-0.47,1.53-0.86,2.33c-0.39,0.8-1.08,1.36-2.06,1.68c-0.98,0.32-2.03,0.48-3.15,0.48
			c-0.22,0-0.48-0.01-0.76-0.02c-0.28-0.01-0.68-0.06-1.2-0.15c-0.52-0.08-1.01-0.25-1.47-0.48c-0.46-0.24-0.93-0.59-1.41-1.07
			c-0.34-0.42-0.69-1.01-1.05-1.76c-0.08-0.48-0.15-0.92-0.21-1.34c-0.06-0.42-0.08-0.88-0.08-1.39c0-1.79,0.45-3.67,1.34-5.63
			l2.77-6.01c0.95-2.07,1.43-3.95,1.43-5.63c0-1.01-0.07-1.76-0.21-2.27c-0.11-0.59-0.44-1.48-0.99-2.69
			c-0.55-1.2-0.82-2.03-0.82-2.48c0-0.31,0.08-0.7,0.25-1.18c0.59-0.67,1.37-1.13,2.33-1.39s2.09-0.38,3.38-0.38h1.6h2.48h0.92
			c0.25,0,0.5,0,0.76,0c0.34-0.08,0.59-0.13,0.76-0.13c0.64,0,1.24,0.01,1.79,0.04c0.55,0.03,1.06,0.08,1.53,0.15
			c0.48,0.07,0.94,0.17,1.39,0.29S178.31,29.6,178.84,29.85z M169.77,32.96c-0.56,0.17-0.96,0.5-1.2,1.01
			c-0.24,0.5-0.36,1.09-0.36,1.76l0.61,0.17l0.77-0.08l0.65-0.13c0.33,0,0.63,0.08,0.9,0.25c0.27-0.08,0.4-0.32,0.4-0.71v-1.05
			C171.25,33.36,170.66,32.96,169.77,32.96z"/>
		<path class="st1" d="M201.01,30.56c0.17,0.39,0.25,0.76,0.25,1.09c0,0.64-0.34,1.34-1.01,2.1l-1.85,1.97
			c-0.28,0.42-1.01,1.15-2.18,2.18l-2.1,2.06l-0.63,1.05c-0.08,0.22-0.15,0.57-0.21,1.05c0,0.81,0.38,1.22,1.13,1.22
			c0.2,0,0.42-0.08,0.67-0.25s0.55-0.61,0.9-1.32c0.35-0.71,0.65-1.23,0.9-1.55c0.25-0.32,0.56-0.48,0.92-0.48
			c0.25,0,0.62,0.13,1.09,0.38l0.71,0.92c0,1.57,0.36,4.3,1.07,8.21c0.71,3.91,1.07,6.64,1.07,8.21c0,1.2-0.1,2.31-0.29,3.32
			c-0.5,0.95-1.25,1.69-2.23,2.23c-0.42,0-0.71-0.03-0.88-0.08h-0.59l-2.73,0.13l-3.11,0.17c-1.54,0-2.83-0.2-3.86-0.59
			c-1.04-0.39-1.89-1.19-2.56-2.39l-0.25-1.97l-0.08-2.27c0-1.04,0.06-2.21,0.17-3.53c0.11-1.32,0.29-2.74,0.55-4.28l0.84-6.13
			c0.56-0.98,1.9-2.59,4.03-4.83l3.32-3.49c0-0.28-0.1-0.54-0.29-0.78c-0.2-0.24-0.46-0.4-0.8-0.48c-0.95,0-1.9,0.69-2.86,2.06
			s-1.79,2.06-2.52,2.06c-0.34,0-0.8-0.13-1.39-0.38l-0.71-2.69l-0.17-1.97c0-0.78,0.11-1.44,0.34-1.97
			c0.98-0.31,1.95-0.54,2.9-0.69c0.95-0.15,1.74-0.26,2.35-0.31c0.62-0.06,1.27-0.08,1.97-0.08c2.6,0,5,0.36,7.18,1.09L201.01,30.56
			z"/>
		<path class="st1" d="M218.36,29.89c0.48,0.5,0.86,1.09,1.16,1.76s0.44,1.29,0.44,1.85c0,0.59-0.14,1.12-0.42,1.6
			c-0.28,0.28-0.64,0.42-1.09,0.42c-0.39,0-0.83-0.17-1.3-0.5l-1.22-1.3c-0.62-0.53-1.15-0.8-1.6-0.8c-0.2,0-0.45,0.07-0.76,0.21
			c-0.31,0.14-0.48,0.43-0.5,0.88c0,0.34,0.08,0.59,0.23,0.78c0.15,0.18,0.79,0.39,1.91,0.61c1.06,0.17,1.6,0.59,1.6,1.26l0.04,0.97
			c0,0.42-0.03,0.74-0.08,0.97c-0.06,0.22-0.29,0.38-0.71,0.46h-0.63c-0.42,0-0.81,0.08-1.18,0.23s-0.63,0.37-0.8,0.64
			s-0.25,0.57-0.25,0.87c0,0.91,0.24,1.41,0.71,1.49l1.09,0.12c0.59,0,1.29-0.49,2.1-1.47c0.81-0.98,1.37-1.47,1.68-1.47
			c0.28,0,0.68,0.14,1.2,0.42c0.52,0.28,0.92,0.99,1.2,2.14l0.8,5.33v1.97l0.04,2.02c0,3.22-0.15,5.45-0.44,6.68
			c-0.29,1.23-0.76,2.16-1.39,2.79s-1.55,1.11-2.75,1.45c-1.32,0.28-2.65,0.42-3.99,0.42c-1.43,0-2.85-0.13-4.26-0.38
			c-1.41-0.25-2.49-0.62-3.21-1.09c-0.76-0.42-1.35-0.93-1.79-1.53c-0.43-0.6-0.65-1.34-0.65-2.21c0-1.65,0.34-3.47,1.01-5.46
			l2.1-5.92c0.7-2.04,1.05-3.82,1.05-5.33c0-0.42,0-0.85,0-1.3c-0.08-0.36-0.15-0.75-0.21-1.16c-0.06-0.41-0.27-1.03-0.63-1.87
			l-1.22-2.35c-0.39-0.87-0.59-1.65-0.59-2.35l0.13-1.01c0.64-0.73,1.47-1.26,2.48-1.6c1.12-0.28,2.3-0.42,3.53-0.42
			c0.45,0,0.87,0,1.28,0s0.86,0,1.37,0l2.98,0.25c0.34,0,0.62,0.08,0.84,0.25C217.79,29.27,218.02,29.5,218.36,29.89z"/>
	</g>
	<circle class="st2" cx="8.5" cy="8.5" r="3"/>
	<circle class="st2" cx="20.5" cy="8.5" r="3"/>
	<circle class="st2" cx="32.5" cy="8.5" r="3"/>
	<circle class="st2" cx="44.5" cy="8.5" r="3"/>
	<circle class="st2" cx="56.5" cy="8.5" r="3"/>
	<circle class="st2" cx="68.5" cy="8.5" r="3"/>
	<circle class="st2" cx="80.5" cy="8.5" r="3"/>
	<circle class="st2" cx="92.5" cy="8.5" r="3"/>
	<circle class="st2" cx="104.5" cy="8.5" r="3"/>
	<circle class="st2" cx="116.5" cy="8.5" r="3"/>
	<circle class="st2" cx="128.5" cy="8.5" r="3"/>
	<circle class="st2" cx="140.5" cy="8.5" r="3"/>
	<circle class="st2" cx="152.5" cy="8.5" r="3"/>
	<circle class="st2" cx="164.5" cy="8.5" r="3"/>
	<circle class="st2" cx="176.5" cy="8.5" r="3"/>
	<circle class="st2" cx="188.5" cy="8.5" r="3"/>
	<circle class="st2" cx="200.5" cy="8.5" r="3"/>
	<circle class="st2" cx="212.5" cy="8.5" r="3"/>
	<circle class="st2" cx="224.5" cy="8.5" r="3"/>
	<circle class="st2" cx="236.5" cy="8.5" r="3"/>
	<circle class="st2" cx="8.5" cy="20.5" r="3"/>
	<circle class="st2" cx="20.5" cy="20.5" r="3"/>
	<circle class="st2" cx="32.5" cy="20.5" r="3"/>
	<circle class="st2" cx="44.5" cy="20.5" r="3"/>
	<circle class="st2" cx="56.5" cy="20.5" r="3"/>
	<circle class="st2" cx="68.5" cy="20.5" r="3"/>
	<circle class="st2" cx="80.5" cy="20.5" r="3"/>
	<circle class="st2" cx="92.5" cy="20.5" r="3"/>
	<circle class="st2" cx="104.5" cy="20.5" r="3"/>
	<circle class="st2" cx="116.5" cy="20.5" r="3"/>
	<circle class="st2" cx="128.5" cy="20.5" r="3"/>
	<circle class="st2" cx="140.5" cy="20.5" r="3"/>
	<circle class="st2" cx="152.5" cy="20.5" r="3"/>
	<circle class="st2" cx="164.5" cy="20.5" r="3"/>
	<circle class="st2" cx="176.5" cy="20.5" r="3"/>
	<circle class="st2" cx="188.5" cy="20.5" r="3"/>
	<circle class="st2" cx="200.5" cy="20.5" r="3"/>
	<circle class="st2" cx="212.5" cy="20.5" r="3"/>
	<circle class="st2" cx="224.5" cy="20.5" r="3"/>
	<circle class="st2" cx="236.5" cy="20.5" r="3"/>
	<circle class="st2" cx="8.5" cy="68.5" r="3"/>
	<circle class="st2" cx="20.5" cy="68.5" r="3"/>
	<circle class="st2" cx="32.5" cy="68.5" r="3"/>
	<circle class="st2" cx="44.5" cy="68.5" r="3"/>
	<circle class="st2" cx="56.5" cy="68.5" r="3"/>
	<circle class="st2" cx="68.5" cy="68.5" r="3"/>
	<circle class="st2" cx="80.5" cy="68.5" r="3"/>
	<circle class="st2" cx="92.5" cy="68.5" r="3"/>
	<circle class="st2" cx="104.5" cy="68.5" r="3"/>
	<circle class="st2" cx="116.5" cy="68.5" r="3"/>
	<circle class="st2" cx="128.5" cy="68.5" r="3"/>
	<circle class="st2" cx="140.5" cy="68.5" r="3"/>
	<circle class="st2" cx="152.5" cy="68.5" r="3"/>
	<circle class="st2" cx="164.5" cy="68.5" r="3"/>
	<circle class="st2" cx="176.5" cy="68.5" r="3"/>
	<circle class="st2" cx="188.5" cy="68.5" r="3"/>
	<circle class="st2" cx="200.5" cy="68.5" r="3"/>
	<circle class="st2" cx="212.5" cy="68.5" r="3"/>
	<circle class="st2" cx="224.5" cy="68.5" r="3"/>
	<circle class="st2" cx="236.5" cy="68.5" r="3"/>
	<circle class="st2" cx="8.5" cy="80.5" r="3"/>
	<circle class="st2" cx="20.5" cy="80.5" r="3"/>
	<circle class="st2" cx="32.5" cy="80.5" r="3"/>
	<circle class="st2" cx="44.5" cy="80.5" r="3"/>
	<circle class="st2" cx="56.5" cy="80.5" r="3"/>
	<circle class="st2" cx="68.5" cy="80.5" r="3"/>
	<circle class="st2" cx="80.5" cy="80.5" r="3"/>
	<circle class="st2" cx="92.5" cy="80.5" r="3"/>
	<circle class="st2" cx="104.5" cy="80.5" r="3"/>
	<circle class="st2" cx="116.5" cy="80.5" r="3"/>
	<circle class="st2" cx="128.5" cy="80.5" r="3"/>
	<circle class="st2" cx="140.5" cy="80.5" r="3"/>
	<circle class="st2" cx="152.5" cy="80.5" r="3"/>
	<circle class="st2" cx="164.5" cy="80.5" r="3"/>
	<circle class="st2" cx="176.5" cy="80.5" r="3"/>
	<circle class="st2" cx="188.5" cy="80.5" r="3"/>
	<circle class="st2" cx="200.5" cy="80.5" r="3"/>
	<circle class="st2" cx="212.5" cy="80.5" r="3"/>
	<circle class="st2" cx="224.5" cy="80.5" r="3"/>
	<circle class="st2" cx="236.5" cy="80.5" r="3"/>
	<circle class="st2" cx="8.5" cy="92.5" r="3"/>
	<circle class="st2" cx="20.5" cy="92.5" r="3"/>
	<circle class="st2" cx="32.5" cy="92.5" r="3"/>
	<circle class="st2" cx="44.5" cy="92.5" r="3"/>
	<circle class="st2" cx="56.5" cy="92.5" r="3"/>
	<circle class="st2" cx="68.5" cy="92.5" r="3"/>
	<circle class="st2" cx="80.5" cy="92.5" r="3"/>
	<circle class="st2" cx="92.5" cy="92.5" r="3"/>
	<circle class="st2" cx="104.5" cy="92.5" r="3"/>
	<circle class="st2" cx="116.5" cy="92.5" r="3"/>
	<circle class="st2" cx="128.5" cy="92.5" r="3"/>
	<circle class="st2" cx="140.5" cy="92.5" r="3"/>
	<circle class="st2" cx="152.5" cy="92.5" r="3"/>
	<circle class="st2" cx="164.5" cy="92.5" r="3"/>
	<circle class="st2" cx="176.5" cy="92.5" r="3"/>
	<circle class="st2" cx="188.5" cy="92.5" r="3"/>
	<circle class="st2" cx="200.5" cy="92.5" r="3"/>
	<circle class="st2" cx="212.5" cy="92.5" r="3"/>
	<circle class="st2" cx="224.5" cy="92.5" r="3"/>
	<circle class="st2" cx="236.5" cy="92.5" r="3"/>
</g>
<circle class="st2" cx="8.5" cy="32.5" r="3"/>
<circle class="st2" cx="20.5" cy="32.5" r="3"/>
<circle class="st2" cx="44.5" cy="32.5" r="3"/>
<circle class="st2" cx="224.5" cy="32.5" r="3"/>
<circle class="st2" cx="236.5" cy="32.5" r="3"/>
<circle class="st2" cx="8.5" cy="44.5" r="3"/>
<circle class="st2" cx="20.5" cy="44.5" r="3"/>
<circle class="st2" cx="92.5" cy="44.5" r="3"/>
<circle class="st2" cx="236.5" cy="44.5" r="3"/>
<circle class="st2" cx="8.5" cy="56.5" r="3"/>
<circle class="st2" cx="20.5" cy="56.5" r="3"/>
<circle class="st2" cx="224.5" cy="56.5" r="3"/>
<circle class="st2" cx="236.5" cy="56.5" r="3"/>
</svg>
