<?xml version="1.0" encoding="utf-8"?>
<!-- Generator: Adobe Illustrator 24.0.3, SVG Export Plug-In . SVG Version: 6.00 Build 0)  -->
<svg version="1.1" id="Layer_1" xmlns="http://www.w3.org/2000/svg" xmlns:xlink="http://www.w3.org/1999/xlink" x="0px" y="0px"
	 viewBox="0 0 250 100" style="enable-background:new 0 0 250 100;" xml:space="preserve">
<style type="text/css">
	.st0{fill:#FCFCFA;stroke:#000000;}
</style>
<g>
	<path d="M45.1,34.7c0.4,0.5,0.7,1.1,0.9,1.8c0.2,0.7,0.3,1.6,0.3,2.5c-0.1,0.5-0.3,0.9-0.7,1.2c-0.3,0.3-0.7,0.6-1.1,0.7l-0.8,0.2
		c-0.6,0-1.2-0.1-1.5-0.4s-0.6-0.6-0.7-1.2v-0.5c0-0.3,0-0.6,0-0.8c0-0.3-0.1-0.6-0.2-0.9s-0.4-0.6-0.9-0.8c-0.6,0-1.1,0.2-1.5,0.6
		c-0.4,0.4-0.7,1-0.8,1.6l-0.4,1.8l-0.2,1.8c0,0.3,0,0.5,0,0.7s0,0.5,0.2,0.8c0.1,0.4,0.2,0.7,0.2,0.8s0.2,0.4,0.4,0.7
		c0.5,0.6,1,1,1.5,1.4s1.1,0.5,1.7,0.5c0.4,0,0.8-0.1,1.1-0.2c0.2-0.1,0.6-0.5,1.1-1.1c0.4-0.6,0.8-1,1.3-1c0.3,0,0.5,0.1,0.8,0.2
		c0.7,1.3,1.2,2.8,1.6,4.5c0.4,1.7,0.6,3.3,0.6,5c0,1.9-0.3,3.7-0.8,5.3s-1.2,3-2,4c-0.8,1-1.5,1.6-2.1,1.8
		c-0.6,0.2-1.1,0.4-1.6,0.6s-1.1,0.2-1.8,0.2h-0.7h-0.4c-1.7,0-3.1-0.5-4.4-1.5c-1.3-1-2.4-2.7-3.3-5s-1.3-5.1-1.3-8.5
		c0-3,0.4-6,1.2-8.7s2-5.2,3.6-7.4c0.7-0.9,1.6-1.6,2.8-2.1s2.3-0.8,3.4-0.8C42.3,32.8,43.9,33.4,45.1,34.7z"/>
	<path d="M64.3,34.1c1.6,1.8,2.8,4.1,3.7,7c0.8,2.9,1.3,7.2,1.3,13.2v4.1c-0.2,1.9-0.8,3.7-1.7,5.2c-0.8,1.5-2.1,2.7-3.6,3.4
		c-0.7,0.3-1.4,0.5-2.1,0.6c-0.7,0.1-1.5,0.2-2.4,0.2c-1.1,0-2-0.1-2.9-0.3c-0.8-0.2-1.9-0.9-3-1.9c-1.2-1.1-2.1-2.7-2.8-5.1
		c-0.7-2.3-1.1-4.8-1.1-7.6l0.1-3.5c0-0.7,0.1-1.5,0.2-2.6s0.3-1.9,0.4-2.7c1.2-3.9,2.2-6.6,3-8.3c0.8-1.7,2-2.7,3.3-2.9l2.5-0.4h1
		c0.8,0,1.5,0.1,2.1,0.3C63.2,33.1,63.8,33.5,64.3,34.1z M59.5,37.3c-0.5,0-0.9,0.2-1.2,0.7s-0.5,0.9-0.6,1.4l-0.2,1.5v1.2V44
		c0,0.5,0.2,0.8,0.6,1c0.4,0.2,0.9,0.3,1.4,0.3c0.6,0,1-0.1,1.4-0.4c0.4-0.2,0.6-0.6,0.6-1v-1.7v-0.6c0-0.1,0-0.3,0-0.5
		c0-0.2,0-0.3,0-0.4c0-0.4-0.1-0.9-0.3-1.4c-0.2-0.6-0.4-1.1-0.6-1.5C60.4,37.5,60,37.3,59.5,37.3z"/>
	<path d="M83.6,35.2l0.4,1l0.7,1.4c0.5-1.2,1.3-2.3,2.3-3.2c1-0.9,2.2-1.6,3.6-2l1.1-0.2l1.2,0c1,0,1.9,0.2,2.7,0.5
		c0.8,0.3,1.4,0.9,1.9,1.7c0,1.2-0.5,2.9-1.5,5.2s-1.5,4-1.5,5c0,0.5,0.4,2,1.2,4.7l3.5,11.4c0,1.3-0.3,2.4-0.8,3.4
		c-0.5,1-1.5,1.9-2.9,2.9l-1.5,0.3l-1.8,0.1c-1.2,0-2.3-0.2-3.3-0.7s-1.8-1.2-2.3-2.2c-0.4-1.1-0.6-2.3-0.6-3.5
		c0-1.2,0.6-3.5,1.8-6.8c1.2-3.3,1.8-5.6,1.8-7.1c0-1.1-0.2-2.2-0.6-3.3c-0.2-0.4-0.5-0.5-0.8-0.5c-0.2,0-0.4,0.1-0.6,0.2
		c-0.2,0.3-0.3,0.7-0.4,1.2l-0.1,1.4l0.1,2.1l0.1,2.1c0,1.1-0.3,2-0.8,2.7c-0.5,0.7-1.1,1-1.9,1c-0.6,0-1.2-0.3-1.7-1
		c-0.5-0.6-0.7-1.5-0.7-2.7l0.1-1.8l0.2-2c0-0.5,0-0.8-0.1-1s-0.1-0.5-0.3-0.9c-0.2-0.7-0.5-1-0.9-1c-0.2,0-0.4,0.2-0.7,0.5
		s-0.4,0.7-0.5,1l-0.1,0.9l0.1,1.6l0.1,1.5L84,61.5c0,1-0.2,2-0.7,2.9s-1.2,1.7-2.3,2.5l-1.7,0.2l-1.7,0.1l-1.9-0.1
		c-0.6-0.1-1.2-0.3-1.9-0.6s-1.2-1-1.6-1.9c-0.4-0.9-0.6-1.9-0.6-2.9c0-0.4,0-0.8,0-1.2c0-0.4,0.1-0.9,0.2-1.3l1-4.6l2.2-9.1v-0.5
		c0-0.2,0-0.5-0.1-0.8s-0.1-0.6-0.1-0.8s-0.1-0.4-0.2-0.7c-0.1-0.5-0.3-1-0.6-1.7s-0.7-1.5-1.1-2.5s-0.7-1.9-0.7-2.8
		c0-0.5,0.1-1,0.2-1.3c0.1-0.4,0.3-0.8,0.7-1.3c1-0.9,2.4-1.3,4.1-1.3c1.3,0,2.6,0.3,3.8,0.8C82,33.3,82.9,34.1,83.6,35.2z"/>
	<path d="M113.9,33.7l0.5,1.2l0.2,1.2c0,0.5-0.1,1.1-0.3,1.8c-0.2,0.7-0.7,1.8-1.4,3.3c-0.7,1.5-1.1,2.7-1.1,3.5c0,0.2,0,0.4,0,0.5
		s0.1,0.4,0.2,0.9c0.1,0.5,0.7,2.3,1.9,5.6s1.7,5.9,1.7,7.9c0,1.5-0.3,3-0.8,4.5c-0.5,0.9-1.2,1.6-2.1,2s-2.1,0.7-3.3,0.7
		c-0.8,0-1.7-0.1-2.5-0.2s-1.8-0.5-2.9-1.1c-1.1-0.6-1.9-1.4-2.3-2.6c-0.1-0.4-0.2-0.8-0.2-1.3s-0.1-0.9-0.1-1.4
		c0-1,0.2-2.1,0.5-3.3s1-3.2,2-5.8c1-2.6,1.5-4.8,1.5-6.5c0-0.4,0-0.7,0-1.1c-0.1-0.4-0.2-0.8-0.2-1.2c-0.1-0.4-0.2-0.9-0.4-1.3
		c-0.2-0.5-0.5-1.3-1-2.3c-0.5-1-0.8-1.8-0.8-2.5c0-0.5,0.2-1.1,0.4-1.7c0.3-0.6,0.9-1,1.9-1.4s2.2-0.5,3.5-0.5
		c1.2,0,2.4,0.1,3.4,0.4S113.7,33.3,113.9,33.7z"/>
	<path d="M132.6,34.7c0.4,0.5,0.7,1.1,0.9,1.8c0.2,0.7,0.3,1.6,0.3,2.5c-0.1,0.5-0.3,0.9-0.7,1.2c-0.4,0.3-0.7,0.6-1.1,0.7l-0.8,0.2
		c-0.6,0-1.2-0.1-1.5-0.4s-0.6-0.6-0.7-1.2v-0.5c0-0.3,0-0.6,0-0.8s-0.1-0.6-0.2-0.9s-0.4-0.6-0.9-0.8c-0.6,0-1.1,0.2-1.5,0.6
		c-0.4,0.4-0.7,1-0.8,1.6l-0.4,1.8l-0.2,1.8c0,0.3,0,0.5,0,0.7s0.1,0.5,0.2,0.8s0.2,0.7,0.2,0.8s0.2,0.4,0.4,0.7
		c0.4,0.6,0.9,1,1.5,1.4s1.1,0.5,1.7,0.5c0.4,0,0.8-0.1,1.1-0.2c0.2-0.1,0.6-0.5,1.1-1.1c0.4-0.6,0.9-1,1.3-1c0.3,0,0.5,0.1,0.8,0.2
		c0.7,1.3,1.2,2.8,1.6,4.5c0.4,1.7,0.6,3.3,0.6,5c0,1.9-0.3,3.7-0.8,5.3s-1.2,3-2,4c-0.8,1-1.5,1.6-2.1,1.8
		c-0.6,0.2-1.1,0.4-1.6,0.6s-1.1,0.2-1.8,0.2h-0.7h-0.4c-1.7,0-3.1-0.5-4.4-1.5c-1.3-1-2.4-2.7-3.3-5s-1.3-5.1-1.3-8.5
		c0-3,0.4-6,1.2-8.7c0.8-2.7,2-5.2,3.6-7.4c0.7-0.9,1.6-1.6,2.8-2.1s2.3-0.8,3.4-0.8C129.8,32.8,131.4,33.4,132.6,34.7z"/>
	<path d="M147.4,33.5c0.6,0.6,0.9,1.3,0.9,2.1c0,0.5-0.2,1.3-0.6,2.4c-0.4,1.1-0.6,1.9-0.6,2.4l0,0.7l0.2,0.6
		c0.1,0.2,0.4,0.3,0.7,0.3h0.3l0.5-0.2c0.4-0.3,0.7-0.8,0.9-1.3s0.2-1.1,0.2-1.8l0-1.4v-0.5c0-0.2,0-0.5-0.1-0.9
		c0-0.8,0.1-1.5,0.4-2c0.3-0.5,0.9-0.9,1.8-1.2l1.2-0.4l1.5-0.2c1.4,0,2.5,0.3,3.4,1c0.6,0.5,0.8,1.2,0.8,2.1c0,0.3,0,0.6-0.1,0.9
		c-0.1,0.3-0.3,0.7-0.6,1.2s-1.4,1.4-3.2,2.7s-3,2.4-3.5,3.4c0.2,0.9,1.2,2.3,2.8,4.2c1.6,1.9,2.7,3.2,3.2,4c0.5,0.8,1.1,2,1.7,3.7
		c0.6,1.7,0.9,3.3,0.9,5c0,1.7-0.2,3-0.7,4s-1.1,1.6-1.8,1.9c-0.8,0.3-1.6,0.5-2.5,0.5c-1,0-1.9-0.2-2.7-0.6s-1.4-1-1.9-2
		c-0.2-0.5-0.4-1.2-0.6-2l-0.2-2.2c0-0.3,0-0.8,0-1.3s0.1-1.3,0.2-2.1l0.2-3.3c0-0.4,0-0.8,0-1s-0.1-0.8-0.2-1.7
		c-0.1-0.9-0.2-1.5-0.3-1.9c-0.1-0.4-0.2-0.8-0.3-1c-0.2-0.5-0.5-0.7-1.1-0.8c-0.6,0.2-1.1,0.7-1.5,1.3c-0.3,0.6-0.4,1.3-0.4,2.1
		c0,0.7,0,1.3,0.1,1.6s0.1,0.6,0.1,0.7c0,0.2,0.1,0.5,0.2,0.9l1,3.5c0.4,1.7,0.7,3.1,0.7,4.1c0,1.3-0.3,2.6-1,3.7
		c-0.6,0.6-1.3,1.1-2.1,1.4s-1.6,0.5-2.4,0.5c-1,0-2-0.2-3.1-0.6c-0.8-0.3-1.3-0.8-1.6-1.4l-0.9-2.7c0-1.9,0.7-4.8,2.1-8.5
		c1.4-3.7,2.1-6.4,2.1-8l0-0.8c0-1.1-0.4-2.9-1.3-5.2s-1.3-4-1.3-5l0-0.9c1-1.2,2.4-1.8,4.4-1.8C145,32.2,146.3,32.7,147.4,33.5z"/>
	<path d="M184.8,33.8c0.6,0.6,0.9,1.2,0.9,1.9c0,0.5-0.2,1.2-0.7,2.2c-0.5,1-0.8,1.8-0.8,2.3c-0.2,1.1-0.4,2-0.4,2.9
		c0,1.8,0.4,3.7,1.3,5.7l2.6,5.8c0.4,1.2,0.8,2.2,1,3.3c0.2,1.1,0.3,2.1,0.3,3.2c0,1.1-0.2,2-0.5,2.7s-0.9,1.2-1.7,1.6
		c-0.8,0.3-1.5,0.5-2.2,0.7s-1.2,0.2-1.7,0.3s-0.8,0.1-1.3,0.1c-0.8,0-1.6-0.1-2.2-0.2s-1.2-0.5-1.7-1.1s-0.9-1.3-1.2-2.2
		c-0.3-0.9-0.4-1.8-0.4-2.9c0-1.3,0.2-3.1,0.6-5.3s0.7-3.7,0.8-4.6s0.2-1.6,0.2-2.2c0-0.8-0.1-1.5-0.5-2.1c-0.3-0.6-0.8-1-1.5-1
		c-0.6,0-1.2,0.1-1.6,0.4c-0.4,0.3-0.7,0.6-0.8,1.1l-0.1,1.1v0.6c0,1.4,0.3,3.4,0.9,5.9c0.6,2.5,0.9,4.4,0.9,5.6
		c0,1-0.1,1.9-0.3,2.7c-0.2,0.8-0.5,1.5-0.9,2.3S173,66,172,66.3s-2,0.5-3.1,0.5c-0.2,0-0.5,0-0.8,0c-0.3,0-0.7-0.1-1.2-0.2
		c-0.5-0.1-1-0.2-1.5-0.5c-0.5-0.2-0.9-0.6-1.4-1.1c-0.3-0.4-0.7-1-1.1-1.8c-0.1-0.5-0.1-0.9-0.2-1.3c-0.1-0.4-0.1-0.9-0.1-1.4
		c0-1.8,0.4-3.7,1.3-5.6l2.8-6c0.9-2.1,1.4-4,1.4-5.6c0-1-0.1-1.8-0.2-2.3c-0.1-0.6-0.4-1.5-1-2.7c-0.6-1.2-0.8-2-0.8-2.5
		c0-0.3,0.1-0.7,0.2-1.2c0.6-0.7,1.4-1.1,2.3-1.4s2.1-0.4,3.4-0.4h1.6h2.5h0.9c0.2,0,0.5,0,0.8,0c0.3-0.1,0.6-0.1,0.8-0.1
		c0.6,0,1.2,0,1.8,0c0.6,0,1.1,0.1,1.5,0.2c0.5,0.1,0.9,0.2,1.4,0.3S184.3,33.6,184.8,33.8z M175.8,37c-0.6,0.2-1,0.5-1.2,1
		c-0.2,0.5-0.4,1.1-0.4,1.8l0.6,0.2l0.8-0.1l0.6-0.1c0.3,0,0.6,0.1,0.9,0.2c0.3-0.1,0.4-0.3,0.4-0.7v-1
		C177.2,37.4,176.7,37,175.8,37z"/>
	<path d="M207,34.6c0.2,0.4,0.2,0.8,0.2,1.1c0,0.6-0.3,1.3-1,2.1l-1.9,2c-0.3,0.4-1,1.2-2.2,2.2l-2.1,2.1l-0.6,1
		c-0.1,0.2-0.1,0.6-0.2,1c0,0.8,0.4,1.2,1.1,1.2c0.2,0,0.4-0.1,0.7-0.2s0.6-0.6,0.9-1.3c0.4-0.7,0.6-1.2,0.9-1.5s0.6-0.5,0.9-0.5
		c0.2,0,0.6,0.1,1.1,0.4l0.7,0.9c0,1.6,0.4,4.3,1.1,8.2s1.1,6.6,1.1,8.2c0,1.2-0.1,2.3-0.3,3.3c-0.5,0.9-1.2,1.7-2.2,2.2
		c-0.4,0-0.7,0-0.9-0.1h-0.6L201,67l-3.1,0.2c-1.5,0-2.8-0.2-3.9-0.6c-1-0.4-1.9-1.2-2.6-2.4l-0.2-2l-0.1-2.3c0-1,0.1-2.2,0.2-3.5
		s0.3-2.7,0.6-4.3l0.8-6.1c0.6-1,1.9-2.6,4-4.8l3.3-3.5c0-0.3-0.1-0.5-0.3-0.8c-0.2-0.2-0.5-0.4-0.8-0.5c-0.9,0-1.9,0.7-2.9,2.1
		s-1.8,2.1-2.5,2.1c-0.3,0-0.8-0.1-1.4-0.4l-0.7-2.7l-0.2-2c0-0.8,0.1-1.4,0.3-2c1-0.3,1.9-0.5,2.9-0.7c0.9-0.2,1.7-0.3,2.4-0.3
		c0.6-0.1,1.3-0.1,2-0.1c2.6,0,5,0.4,7.2,1.1L207,34.6z"/>
	<path d="M224.4,33.9c0.5,0.5,0.9,1.1,1.2,1.8s0.4,1.3,0.4,1.8c0,0.6-0.1,1.1-0.4,1.6c-0.3,0.3-0.6,0.4-1.1,0.4
		c-0.4,0-0.8-0.2-1.3-0.5l-1.2-1.3c-0.6-0.5-1.1-0.8-1.6-0.8c-0.2,0-0.4,0.1-0.8,0.2s-0.5,0.4-0.5,0.9c0,0.3,0.1,0.6,0.2,0.8
		c0.1,0.2,0.8,0.4,1.9,0.6c1.1,0.2,1.6,0.6,1.6,1.3l0,1c0,0.4,0,0.7-0.1,1c-0.1,0.2-0.3,0.4-0.7,0.5h-0.6c-0.4,0-0.8,0.1-1.2,0.2
		s-0.6,0.4-0.8,0.6s-0.2,0.6-0.2,0.9c0,0.9,0.2,1.4,0.7,1.5l1.1,0.1c0.6,0,1.3-0.5,2.1-1.5c0.8-1,1.4-1.5,1.7-1.5
		c0.3,0,0.7,0.1,1.2,0.4s0.9,1,1.2,2.1l0.8,5.3v2l0,2c0,3.2-0.1,5.5-0.4,6.7c-0.3,1.2-0.8,2.2-1.4,2.8s-1.6,1.1-2.8,1.4
		c-1.3,0.3-2.6,0.4-4,0.4c-1.4,0-2.9-0.1-4.3-0.4c-1.4-0.2-2.5-0.6-3.2-1.1c-0.8-0.4-1.4-0.9-1.8-1.5c-0.4-0.6-0.6-1.3-0.6-2.2
		c0-1.7,0.3-3.5,1-5.5l2.1-5.9c0.7-2,1.1-3.8,1.1-5.3c0-0.4,0-0.8,0-1.3c-0.1-0.4-0.1-0.8-0.2-1.2c-0.1-0.4-0.3-1-0.6-1.9l-1.2-2.3
		c-0.4-0.9-0.6-1.7-0.6-2.3l0.1-1c0.6-0.7,1.5-1.3,2.5-1.6c1.1-0.3,2.3-0.4,3.5-0.4c0.4,0,0.9,0,1.3,0s0.9,0,1.4,0l3,0.2
		c0.3,0,0.6,0.1,0.8,0.2C223.8,33.3,224,33.5,224.4,33.9z"/>
</g>
<g>
	<path class="st0" d="M39.1,30.6c0.4,0.5,0.7,1.1,0.9,1.8c0.2,0.7,0.3,1.6,0.3,2.5c-0.1,0.5-0.3,0.9-0.7,1.2
		c-0.3,0.3-0.7,0.6-1.1,0.7l-0.8,0.2c-0.6,0-1.2-0.1-1.5-0.4s-0.6-0.6-0.7-1.2v-0.5c0-0.3,0-0.6,0-0.8c0-0.3-0.1-0.6-0.2-0.9
		s-0.4-0.6-0.9-0.8c-0.6,0-1.1,0.2-1.5,0.6c-0.4,0.4-0.7,1-0.8,1.6l-0.4,1.8l-0.2,1.8c0,0.3,0,0.5,0,0.7s0,0.5,0.1,0.8
		s0.2,0.7,0.2,0.8s0.2,0.4,0.4,0.7c0.5,0.6,1,1,1.5,1.4s1.1,0.5,1.7,0.5c0.4,0,0.8-0.1,1.1-0.2c0.2-0.1,0.6-0.5,1.1-1.1
		c0.4-0.6,0.8-1,1.3-1c0.3,0,0.5,0.1,0.8,0.2c0.7,1.3,1.2,2.8,1.6,4.5c0.4,1.7,0.6,3.3,0.6,5c0,1.9-0.3,3.7-0.8,5.3s-1.2,3-2,4
		s-1.5,1.6-2.1,1.8c-0.6,0.2-1.1,0.5-1.6,0.6s-1.1,0.2-1.8,0.2h-0.7h-0.4c-1.6,0-3.1-0.5-4.4-1.5c-1.3-1-2.4-2.7-3.3-5
		s-1.3-5.1-1.3-8.5c0-3,0.4-6,1.2-8.7s2-5.2,3.6-7.4c0.7-0.9,1.6-1.6,2.8-2.1c1.1-0.5,2.3-0.8,3.4-0.8
		C36.3,28.8,37.9,29.4,39.1,30.6z"/>
	<path class="st0" d="M58.3,30.1c1.6,1.8,2.8,4.1,3.7,7c0.8,2.9,1.3,7.2,1.3,13.2v4.1c-0.2,1.9-0.8,3.7-1.7,5.2
		c-0.8,1.5-2,2.7-3.6,3.4c-0.7,0.3-1.4,0.5-2.1,0.6c-0.7,0.1-1.5,0.2-2.4,0.2c-1.1,0-2-0.1-2.9-0.3c-0.8-0.2-1.9-0.9-3-1.9
		c-1.2-1-2.1-2.7-2.8-5.1s-1.1-4.8-1.1-7.6l0.1-3.5c0-0.7,0.1-1.5,0.2-2.6s0.3-1.9,0.4-2.7c1.2-3.9,2.2-6.6,3-8.3
		c0.8-1.7,2-2.6,3.3-2.9l2.5-0.4h1c0.8,0,1.5,0.1,2.1,0.3C57.2,29.1,57.8,29.5,58.3,30.1z M53.5,33.3c-0.5,0-0.9,0.2-1.2,0.7
		s-0.5,0.9-0.6,1.4l-0.2,1.5v1.2V40c0,0.5,0.2,0.8,0.6,1c0.4,0.2,0.9,0.3,1.4,0.3c0.6,0,1-0.1,1.4-0.4c0.4-0.2,0.6-0.6,0.6-1v-1.7
		v-0.6c0-0.1,0-0.3,0-0.5c0-0.2,0-0.3,0-0.4c0-0.4-0.1-0.9-0.3-1.4c-0.2-0.6-0.4-1.1-0.6-1.5C54.4,33.5,54,33.3,53.5,33.3z"/>
	<path class="st0" d="M77.6,31.2l0.4,1l0.7,1.4c0.5-1.2,1.3-2.3,2.3-3.2s2.2-1.6,3.6-2l1.1-0.2l1.2,0c1,0,1.9,0.2,2.7,0.5
		c0.8,0.3,1.4,0.9,1.9,1.7c0,1.1-0.5,2.9-1.5,5.2s-1.5,4-1.5,5c0,0.5,0.4,2,1.2,4.7l3.5,11.4c0,1.3-0.3,2.4-0.8,3.4
		c-0.5,1-1.5,2-2.9,2.9l-1.5,0.3l-1.8,0.1c-1.2,0-2.3-0.2-3.3-0.7s-1.8-1.2-2.3-2.2c-0.4-1.1-0.6-2.3-0.6-3.5c0-1.2,0.6-3.5,1.8-6.8
		c1.2-3.3,1.8-5.6,1.8-7.1c0-1.1-0.2-2.2-0.6-3.3c-0.2-0.4-0.5-0.5-0.8-0.5c-0.2,0-0.4,0.1-0.6,0.2c-0.2,0.3-0.3,0.7-0.4,1.2
		l-0.1,1.4l0.1,2.1l0.1,2.1c0,1.1-0.3,2-0.8,2.7c-0.5,0.7-1.1,1-1.9,1c-0.6,0-1.2-0.3-1.7-1c-0.5-0.6-0.7-1.5-0.7-2.7l0.1-1.8l0.2-2
		c0-0.5,0-0.8-0.1-1s-0.1-0.5-0.3-0.9c-0.2-0.7-0.5-1-0.9-1c-0.2,0-0.4,0.2-0.7,0.5s-0.4,0.7-0.5,1l-0.1,0.9l0.1,1.6l0.1,1.5
		L78,57.5c0,1-0.2,2-0.7,2.9s-1.2,1.7-2.3,2.5l-1.7,0.2l-1.7,0.1l-1.9-0.1c-0.6-0.1-1.2-0.3-1.9-0.6s-1.2-1-1.6-1.9
		c-0.4-0.9-0.6-1.9-0.6-2.9c0-0.4,0-0.8,0-1.2c0-0.4,0.1-0.9,0.2-1.3l1-4.6l2.2-9.1v-0.5c0-0.2,0-0.5-0.1-0.8s-0.1-0.6-0.1-0.8
		s-0.1-0.4-0.2-0.7c-0.1-0.5-0.3-1-0.6-1.7s-0.7-1.5-1.1-2.5s-0.7-1.9-0.7-2.8c0-0.5,0.1-1,0.2-1.3c0.1-0.4,0.3-0.8,0.7-1.3
		c1-0.9,2.4-1.3,4.1-1.3c1.3,0,2.6,0.3,3.8,0.8C76,29.3,76.9,30.1,77.6,31.2z"/>
	<path class="st0" d="M107.9,29.7l0.5,1.2l0.2,1.2c0,0.5-0.1,1.1-0.3,1.8c-0.2,0.7-0.7,1.8-1.4,3.3c-0.7,1.5-1.1,2.7-1.1,3.5
		c0,0.2,0,0.4,0,0.5s0.1,0.4,0.2,0.9c0.1,0.5,0.7,2.3,1.9,5.6s1.7,5.9,1.7,7.9c0,1.5-0.3,3-0.8,4.5c-0.5,0.9-1.2,1.6-2.1,2
		s-2.1,0.7-3.3,0.7c-0.8,0-1.7-0.1-2.5-0.2s-1.8-0.5-2.9-1.1c-1.1-0.6-1.9-1.4-2.3-2.6c-0.1-0.4-0.2-0.8-0.2-1.3s-0.1-0.9-0.1-1.4
		c0-1,0.2-2.1,0.5-3.3s1-3.2,2-5.8c1-2.6,1.5-4.8,1.5-6.5c0-0.4,0-0.7,0-1.1c-0.1-0.4-0.2-0.8-0.2-1.2c-0.1-0.4-0.2-0.9-0.4-1.3
		c-0.2-0.5-0.5-1.3-1-2.3c-0.5-1-0.8-1.8-0.8-2.5c0-0.5,0.2-1.1,0.4-1.7c0.3-0.6,0.9-1,1.9-1.4s2.2-0.5,3.5-0.5
		c1.2,0,2.4,0.1,3.4,0.4S107.7,29.3,107.9,29.7z"/>
	<path class="st0" d="M126.6,30.6c0.4,0.5,0.7,1.1,0.9,1.8c0.2,0.7,0.3,1.6,0.3,2.5c-0.1,0.5-0.3,0.9-0.7,1.2
		c-0.3,0.3-0.7,0.6-1.1,0.7l-0.8,0.2c-0.6,0-1.2-0.1-1.5-0.4s-0.6-0.6-0.7-1.2v-0.5c0-0.3,0-0.6,0-0.8s-0.1-0.6-0.2-0.9
		c-0.1-0.3-0.4-0.6-0.9-0.8c-0.6,0-1.1,0.2-1.5,0.6c-0.4,0.4-0.7,1-0.8,1.6l-0.4,1.8l-0.2,1.8c0,0.3,0,0.5,0,0.7s0.1,0.5,0.2,0.8
		s0.2,0.7,0.2,0.8s0.2,0.4,0.4,0.7c0.4,0.6,0.9,1,1.5,1.4s1.1,0.5,1.7,0.5c0.4,0,0.8-0.1,1.1-0.2c0.2-0.1,0.6-0.5,1.1-1.1
		c0.4-0.6,0.8-1,1.3-1c0.3,0,0.5,0.1,0.8,0.2c0.7,1.3,1.2,2.8,1.6,4.5c0.4,1.7,0.6,3.3,0.6,5c0,1.9-0.3,3.7-0.8,5.3s-1.2,3-2,4
		s-1.5,1.6-2.1,1.8s-1.1,0.5-1.6,0.6s-1.1,0.2-1.8,0.2h-0.7h-0.4c-1.7,0-3.1-0.5-4.4-1.5c-1.3-1-2.4-2.7-3.3-5s-1.3-5.1-1.3-8.5
		c0-3,0.4-6,1.2-8.7c0.8-2.7,2-5.2,3.6-7.4c0.7-0.9,1.6-1.6,2.8-2.1s2.3-0.8,3.4-0.8C123.8,28.8,125.4,29.4,126.6,30.6z"/>
	<path class="st0" d="M141.4,29.5c0.6,0.6,0.9,1.3,0.9,2.1c0,0.5-0.2,1.3-0.6,2.4c-0.4,1.1-0.6,1.9-0.6,2.4l0,0.7l0.2,0.6
		c0.1,0.2,0.4,0.3,0.7,0.3h0.3l0.5-0.2c0.4-0.3,0.7-0.8,0.9-1.3s0.2-1.1,0.2-1.8l0-1.4v-0.5c0-0.2,0-0.5-0.1-0.9
		c0-0.8,0.1-1.5,0.4-2c0.3-0.5,0.9-0.9,1.8-1.2l1.2-0.4l1.5-0.2c1.4,0,2.5,0.3,3.4,1c0.6,0.5,0.8,1.2,0.8,2.1c0,0.3,0,0.6-0.1,0.9
		c-0.1,0.3-0.3,0.7-0.6,1.2s-1.4,1.4-3.2,2.7s-3,2.4-3.5,3.4c0.2,0.9,1.2,2.3,2.8,4.2c1.6,1.9,2.7,3.2,3.2,4c0.5,0.8,1.1,2,1.7,3.7
		c0.6,1.7,0.9,3.3,0.9,5c0,1.7-0.2,3-0.7,4s-1.1,1.6-1.8,1.9s-1.6,0.5-2.5,0.5c-1,0-1.9-0.2-2.7-0.6s-1.4-1-1.9-2
		c-0.2-0.5-0.4-1.2-0.6-2l-0.2-2.2c0-0.3,0-0.8,0-1.3s0.1-1.3,0.2-2.1l0.2-3.3c0-0.4,0-0.8,0-1s-0.1-0.8-0.2-1.7
		c-0.1-0.9-0.2-1.5-0.3-1.9c-0.1-0.4-0.2-0.8-0.3-1c-0.2-0.5-0.5-0.7-1.1-0.8c-0.6,0.2-1.1,0.7-1.5,1.3c-0.3,0.6-0.4,1.3-0.4,2.1
		c0,0.7,0,1.3,0.1,1.6s0.1,0.6,0.1,0.7c0,0.2,0.1,0.5,0.2,0.9l1,3.5c0.4,1.7,0.7,3.1,0.7,4.1c0,1.3-0.3,2.6-1,3.7
		c-0.6,0.6-1.3,1.1-2.1,1.4c-0.8,0.3-1.6,0.5-2.4,0.5c-1,0-2-0.2-3.1-0.5c-0.8-0.3-1.3-0.8-1.6-1.4l-0.9-2.7c0-1.9,0.7-4.8,2.1-8.5
		c1.4-3.7,2.1-6.4,2.1-8l0-0.8c0-1.1-0.4-2.9-1.3-5.2s-1.3-4-1.3-5l0-0.9c1-1.2,2.4-1.8,4.4-1.8C139,28.2,140.3,28.7,141.4,29.5z"/>
	<path class="st0" d="M178.8,29.9c0.6,0.6,0.9,1.2,0.9,1.9c0,0.5-0.2,1.2-0.7,2.2c-0.5,1-0.8,1.8-0.8,2.3c-0.2,1.1-0.4,2-0.4,2.9
		c0,1.8,0.4,3.7,1.3,5.7l2.6,5.8c0.4,1.2,0.8,2.2,1,3.3c0.2,1.1,0.3,2.1,0.3,3.2c0,1.1-0.2,2-0.5,2.7s-0.9,1.2-1.7,1.6
		c-0.8,0.3-1.5,0.5-2.2,0.7s-1.2,0.2-1.7,0.3s-0.8,0.1-1.3,0.1c-0.8,0-1.6-0.1-2.2-0.2s-1.2-0.5-1.7-1.1s-0.9-1.3-1.2-2.2
		c-0.3-0.9-0.4-1.8-0.4-2.9c0-1.3,0.2-3.1,0.6-5.3s0.7-3.7,0.8-4.6s0.2-1.6,0.2-2.2c0-0.8-0.1-1.5-0.5-2.1c-0.3-0.6-0.8-1-1.5-1
		c-0.6,0-1.2,0.1-1.6,0.4c-0.4,0.3-0.7,0.6-0.8,1.1l-0.1,1.1v0.6c0,1.4,0.3,3.4,0.9,5.9c0.6,2.5,0.9,4.4,0.9,5.6
		c0,1-0.1,1.9-0.3,2.7c-0.2,0.8-0.5,1.5-0.9,2.3c-0.4,0.8-1.1,1.4-2.1,1.7s-2,0.5-3.1,0.5c-0.2,0-0.5,0-0.8,0
		c-0.3,0-0.7-0.1-1.2-0.2c-0.5-0.1-1-0.2-1.5-0.5c-0.5-0.2-0.9-0.6-1.4-1.1c-0.3-0.4-0.7-1-1.1-1.8c-0.1-0.5-0.1-0.9-0.2-1.3
		c-0.1-0.4-0.1-0.9-0.1-1.4c0-1.8,0.4-3.7,1.3-5.6l2.8-6c0.9-2.1,1.4-4,1.4-5.6c0-1-0.1-1.8-0.2-2.3c-0.1-0.6-0.4-1.5-1-2.7
		c-0.6-1.2-0.8-2-0.8-2.5c0-0.3,0.1-0.7,0.2-1.2c0.6-0.7,1.4-1.1,2.3-1.4s2.1-0.4,3.4-0.4h1.6h2.5h0.9c0.2,0,0.5,0,0.8,0
		c0.3-0.1,0.6-0.1,0.8-0.1c0.6,0,1.2,0,1.8,0c0.6,0,1.1,0.1,1.5,0.1c0.5,0.1,0.9,0.2,1.4,0.3S178.3,29.6,178.8,29.9z M169.8,33
		c-0.6,0.2-1,0.5-1.2,1c-0.2,0.5-0.4,1.1-0.4,1.8l0.6,0.2l0.8-0.1l0.6-0.1c0.3,0,0.6,0.1,0.9,0.2c0.3-0.1,0.4-0.3,0.4-0.7v-1
		C171.2,33.4,170.7,33,169.8,33z"/>
	<path class="st0" d="M201,30.6c0.2,0.4,0.2,0.8,0.2,1.1c0,0.6-0.3,1.3-1,2.1l-1.9,2c-0.3,0.4-1,1.2-2.2,2.2l-2.1,2.1l-0.6,1
		c-0.1,0.2-0.1,0.6-0.2,1c0,0.8,0.4,1.2,1.1,1.2c0.2,0,0.4-0.1,0.7-0.2s0.6-0.6,0.9-1.3c0.4-0.7,0.6-1.2,0.9-1.5s0.6-0.5,0.9-0.5
		c0.2,0,0.6,0.1,1.1,0.4l0.7,0.9c0,1.6,0.4,4.3,1.1,8.2s1.1,6.6,1.1,8.2c0,1.2-0.1,2.3-0.3,3.3c-0.5,1-1.2,1.7-2.2,2.2
		c-0.4,0-0.7,0-0.9-0.1h-0.6L195,63l-3.1,0.2c-1.5,0-2.8-0.2-3.9-0.6c-1-0.4-1.9-1.2-2.6-2.4l-0.2-2l-0.1-2.3c0-1,0.1-2.2,0.2-3.5
		s0.3-2.7,0.6-4.3l0.8-6.1c0.6-1,1.9-2.6,4-4.8l3.3-3.5c0-0.3-0.1-0.5-0.3-0.8c-0.2-0.2-0.5-0.4-0.8-0.5c-0.9,0-1.9,0.7-2.9,2.1
		s-1.8,2.1-2.5,2.1c-0.3,0-0.8-0.1-1.4-0.4l-0.7-2.7l-0.2-2c0-0.8,0.1-1.4,0.3-2c1-0.3,1.9-0.5,2.9-0.7s1.7-0.3,2.4-0.3
		c0.6-0.1,1.3-0.1,2-0.1c2.6,0,5,0.4,7.2,1.1L201,30.6z"/>
	<path class="st0" d="M218.4,29.9c0.5,0.5,0.9,1.1,1.2,1.8s0.4,1.3,0.4,1.9c0,0.6-0.1,1.1-0.4,1.6c-0.3,0.3-0.6,0.4-1.1,0.4
		c-0.4,0-0.8-0.2-1.3-0.5l-1.2-1.3c-0.6-0.5-1.1-0.8-1.6-0.8c-0.2,0-0.4,0.1-0.8,0.2s-0.5,0.4-0.5,0.9c0,0.3,0.1,0.6,0.2,0.8
		c0.1,0.2,0.8,0.4,1.9,0.6c1.1,0.2,1.6,0.6,1.6,1.3l0,1c0,0.4,0,0.7-0.1,1c-0.1,0.2-0.3,0.4-0.7,0.5h-0.6c-0.4,0-0.8,0.1-1.2,0.2
		s-0.6,0.4-0.8,0.6s-0.2,0.6-0.2,0.9c0,0.9,0.2,1.4,0.7,1.5l1.1,0.1c0.6,0,1.3-0.5,2.1-1.5c0.8-1,1.4-1.5,1.7-1.5
		c0.3,0,0.7,0.1,1.2,0.4s0.9,1,1.2,2.1l0.8,5.3v2l0,2c0,3.2-0.1,5.5-0.4,6.7c-0.3,1.2-0.8,2.2-1.4,2.8s-1.6,1.1-2.8,1.5
		c-1.3,0.3-2.6,0.4-4,0.4c-1.4,0-2.9-0.1-4.3-0.4c-1.4-0.2-2.5-0.6-3.2-1.1c-0.8-0.4-1.4-0.9-1.8-1.5c-0.4-0.6-0.6-1.3-0.6-2.2
		c0-1.7,0.3-3.5,1-5.5l2.1-5.9c0.7-2,1.1-3.8,1.1-5.3c0-0.4,0-0.8,0-1.3c-0.1-0.4-0.1-0.8-0.2-1.2c-0.1-0.4-0.3-1-0.6-1.9l-1.2-2.3
		c-0.4-0.9-0.6-1.7-0.6-2.4l0.1-1c0.6-0.7,1.5-1.3,2.5-1.6c1.1-0.3,2.3-0.4,3.5-0.4c0.4,0,0.9,0,1.3,0s0.9,0,1.4,0l3,0.2
		c0.3,0,0.6,0.1,0.8,0.2C217.8,29.3,218,29.5,218.4,29.9z"/>
</g>
</svg>
